<svg xmlns="http://www.w3.org/2000/svg" data-name="Layer 1" viewBox="0 0 95 118.75" x="0px" y="0px"><defs><style>.cls-1{fill-rule:evenodd;}</style></defs><title>a</title><path class="cls-1" d="M70.572,10.955l11.46,11.457,3.284-3.282a3.273,3.273,0,0,0,0-4.615L78.472,7.668a3.273,3.273,0,0,0-4.616,0l-3.284,3.287Zm1.255,7.22L37.015,52.987,32.776,48.75,67.589,13.939l4.238,4.236ZM44.236,60.208,40,55.971,74.811,21.16,79.048,25.4,44.236,60.208ZM29.159,63.829l10.747-1.982L31.14,53.08,29.159,63.829Zm-4.121,4.119a2.112,2.112,0,0,1-.583-1.872l3.264-17.708A2.108,2.108,0,0,1,28.3,47.26L70.874,4.688a7.493,7.493,0,0,1,10.581,0L88.3,11.53a7.5,7.5,0,0,1,0,10.584L45.728,64.682a2.11,2.11,0,0,1-1.109.585L26.912,68.533a2.461,2.461,0,0,1-.382.032,2.111,2.111,0,0,1-1.492-.617ZM4.516,84.565c.118-4.148,5.6-8.739,16.742-14.035a2.109,2.109,0,0,1,1.81,3.81C9,81.025,8.737,84.537,8.733,84.686c-.009.314.423.616.788.813,1.848,1.011,6.6,1.732,13.914.431A51.611,51.611,0,0,0,43.06,78.154c1.554-1.06,3.295-2.392,5.137-3.806,7.087-5.433,13.78-10.568,18.288-7.62,3.859,2.525,3.99,9.754.437,24.168a2.108,2.108,0,0,1-2.046,1.6,2.155,2.155,0,0,1-.507-.061,2.108,2.108,0,0,1-1.543-2.553c4.143-16.81,1.851-19.3,1.35-19.625-.256-.169-1.353-.568-4.721,1.321a80.9,80.9,0,0,0-8.691,6.113c-1.891,1.45-3.677,2.82-5.328,3.947-12.77,8.7-31.2,11.253-37.94,7.56A5.025,5.025,0,0,1,4.516,84.565Z"/></svg>