<?xml version="1.0" encoding="utf-8"?>
<!-- Generator: Adobe Illustrator 26.2.1, SVG Export Plug-In . SVG Version: 6.00 Build 0)  -->
<svg version="1.1" id="Layer_1" xmlns="http://www.w3.org/2000/svg" xmlns:xlink="http://www.w3.org/1999/xlink" x="0px" y="0px"
	 viewBox="0 0 141 147.7" style="enable-background:new 0 0 141 147.7;" xml:space="preserve">
<style type="text/css">
	.st0{fill:#FFFFFF;}
</style>
<g id="dnQ8vx.tif">
	<g>
		<path class="st0" d="M19.87,71.52c-2.39,1.02-4.46,1.53-6.1,2.66c-8.2,5.65-8.95,15.58-1.83,22.72
			c11.41,11.41,22.9,22.73,34.24,34.21c15.2,15.4,33.53,19.51,54.05,14.67c22.32-5.27,38.85-23.95,40.11-46.81
			c1.1-19.98,0.5-40.06,0.43-60.1c-0.01-3.87-1.53-7.53-4.87-9.96c-4.85-3.52-10.11-4.03-15.53-1.5c-5.46,2.55-7.46,7.37-7.69,12.99
			c-0.21,4.9-0.03,9.81-0.05,14.72c0,0.68-0.13,1.36-0.19,2.04c-0.33,0.21-0.65,0.41-0.98,0.62c-0.53-0.85-0.93-1.82-1.62-2.52
			c-6.71-6.81-13.47-13.57-20.22-20.35c-7.1-7.13-14.3-14.17-21.3-21.39C61.1,6.08,49.4,7.87,45.08,16.8
			c-0.74,1.53-1.05,3.27-1.56,4.92c-6.99-3.8-14.37-3.46-18.9,0.93c-2.28,2.21-3.41,4.99-4.03,8.11c-0.82,4.14,0.7,7.6,2.78,11.03
			c-1.94,0.65-3.85,0.99-5.46,1.88c-8.6,4.8-9.95,15.58-2.95,22.9C16.55,68.23,18.2,69.84,19.87,71.52z M80.02,0
			c-0.42,0.43-1.68,1.13-1.9,2.08c-0.36,1.56,0.86,2.28,2.41,2.42c2.48,0.23,4.96,0.47,7.42,0.85c6.2,0.96,10.73,4.21,13.08,10.1
			c1.04,2.6,1.57,5.41,2.62,8c0.34,0.83,1.63,1.28,2.48,1.91c0.55-0.92,1.47-1.8,1.56-2.76c0.11-1.17-0.51-2.4-0.76-3.62
			c-1.8-8.66-6.57-14.82-15.23-17.28C88.24,0.71,84.51,0.62,80.02,0z M0,110.26c0.44,2.51,0.73,4.31,1.07,6.1
			c1.62,8.46,6.99,13.49,14.93,16.01c2.11,0.67,4.39,1.08,6.59,1.07c0.98,0,1.96-1.32,2.94-2.04c-0.76-0.72-1.44-1.57-2.32-2.12
			c-0.59-0.36-1.44-0.31-2.18-0.42c-8.39-1.25-15.59-6.88-15.97-15.7c-0.04-0.9-0.05-1.95-0.51-2.65c-0.59-0.9-1.58-2.06-2.45-2.11
			C1.38,108.36,0.56,109.73,0,110.26z"/>
		<path d="M19.87,71.52c-1.67-1.68-3.31-3.29-4.9-4.95c-7.01-7.32-5.66-18.1,2.95-22.9c1.61-0.9,3.53-1.23,5.46-1.88
			c-2.08-3.43-3.6-6.89-2.78-11.03c0.62-3.12,1.75-5.9,4.03-8.11c4.53-4.39,11.91-4.73,18.9-0.93c0.51-1.66,0.82-3.39,1.56-4.92
			C49.4,7.87,61.1,6.08,68.32,13.52c7.01,7.22,14.2,14.26,21.3,21.39c6.75,6.77,13.51,13.54,20.22,20.35
			c0.69,0.7,1.09,1.67,1.62,2.52c0.33-0.21,0.65-0.41,0.98-0.62c0.07-0.68,0.19-1.36,0.19-2.04c0.01-4.91-0.16-9.82,0.05-14.72
			c0.24-5.62,2.23-10.44,7.69-12.99c5.42-2.53,10.68-2.02,15.53,1.5c3.34,2.43,4.86,6.1,4.87,9.96c0.07,20.04,0.67,40.12-0.43,60.1
			c-1.26,22.87-17.79,41.54-40.11,46.81c-20.52,4.84-38.85,0.73-54.05-14.67c-11.33-11.48-22.83-22.8-34.24-34.21
			c-7.13-7.13-6.37-17.07,1.83-22.72C15.41,73.05,17.48,72.54,19.87,71.52z M136.47,68.59c0-8.65,0.06-17.3-0.04-25.95
			c-0.03-2.12-0.41-4.29-0.97-6.34c-0.9-3.3-4.69-5.93-8.33-6.06c-3.55-0.14-7.81,2.51-8.79,5.77c-0.54,1.8-0.74,3.75-0.76,5.64
			c-0.09,6.65,0.06,13.31-0.11,19.96c-0.04,1.38-1.06,2.74-1.63,4.11c-1.19-0.6-2.62-0.94-3.52-1.82
			C102,53.75,91.79,43.5,81.52,33.31c-6.01-5.97-11.96-12.03-18.18-17.78c-3.57-3.3-8.63-2.87-12.19,0.42
			c-3.1,2.87-3.94,8.69-1.19,12.08c3.18,3.92,6.79,7.49,10.35,11.09c8.83,8.92,17.74,17.77,26.6,26.66
			c1.04,1.04,1.99,2.26,0.64,3.65c-1.35,1.39-2.56,0.49-3.62-0.57C70.9,55.79,57.9,42.7,44.84,29.66c-1.81-1.81-3.78-3.54-5.91-4.94
			c-2.94-1.93-6.21-1.87-9.19-0.07c-5.95,3.57-6.44,10.54-1.17,15.85c9.09,9.14,18.23,18.23,27.34,27.35
			c4.47,4.47,8.93,8.95,13.39,13.42c0.18,0.18,0.35,0.36,0.53,0.53c1.22,1.2,1.78,2.76,0.35,3.83c-0.62,0.46-2.61-0.04-3.36-0.75
			c-4.36-4.1-8.56-8.38-12.77-12.63c-7.31-7.39-14.55-14.85-21.91-22.19c-2.96-2.95-6.57-4.13-10.73-2.88
			c-3.9,1.17-5.71,4.04-6.27,7.86c-0.53,3.56,1.2,6.25,3.56,8.62C29.85,74.84,41.03,86,52.21,97.17c0.59,0.59,1.48,1.15,1.61,1.84
			c0.2,1.01-0.17,2.14-0.29,3.21c-0.98-0.16-2.04-0.13-2.9-0.53c-0.78-0.37-1.36-1.2-2-1.85C41.98,93.21,35.3,86.6,28.7,79.91
			c-5.71-5.79-13.44-3.46-16.04,1.63c-1.98,3.87-1.19,8.26,2.49,12c11.5,11.66,22.97,23.36,34.58,34.91c2.87,2.85,6,5.6,9.44,7.69
			c15.6,9.49,32.18,9.59,48.27,2.35c19.05-8.57,28.2-24.5,28.97-45.2C136.72,85.07,136.46,76.83,136.47,68.59z"/>
		<path d="M80.02,0c4.49,0.62,8.22,0.71,11.69,1.69c8.66,2.46,13.43,8.63,15.23,17.28c0.25,1.22,0.87,2.45,0.76,3.62
			c-0.09,0.96-1.01,1.85-1.56,2.76c-0.85-0.63-2.14-1.07-2.48-1.91c-1.06-2.59-1.59-5.4-2.62-8c-2.35-5.89-6.88-9.14-13.08-10.1
			c-2.46-0.38-4.94-0.63-7.42-0.85c-1.56-0.14-2.78-0.86-2.41-2.42C78.34,1.13,79.6,0.43,80.02,0z"/>
		<path d="M0,110.26c0.56-0.53,1.38-1.9,2.12-1.86c0.87,0.05,1.86,1.2,2.45,2.11c0.46,0.7,0.47,1.75,0.51,2.65
			c0.37,8.83,7.58,14.45,15.97,15.7c0.74,0.11,1.59,0.05,2.18,0.42c0.87,0.54,1.55,1.4,2.32,2.12c-0.98,0.72-1.96,2.04-2.94,2.04
			c-2.2,0-4.48-0.4-6.59-1.07c-7.94-2.51-13.31-7.55-14.93-16.01C0.73,114.57,0.44,112.77,0,110.26z"/>
	</g>
</g>
</svg>
